# xmcd
#
# Track frame offsets:
#	150
#	25502
#	45371
#	67077
#	87821
#	111034
#	128044
#	145581
#	168909
#
# Disc length: 2979 seconds
#
# Revision: 1
# Processed by: cddbd v1.4PL0 Copyright (c) Steve Scherf et al.
# Submitted via: audiograbber 1.80
#
DISCID=670ba109
DTITLE=Sarah Evans - Born to Fly
DYEAR=1900
DGENRE=
TTITLE0=Born to Fly
TTITLE1=Saints and Angels
TTITLE2=I Could Not Ask for More
TTITLE3=I Keep Looking
TTITLE4=I Learned That From You
TTITLE5=Let's Dance
TTITLE6=Why Should I Care
TTITLE7=Four-Thirty
TTITLE8=Show Me the Way to Your Heart
EXTD=
EXTT0=
EXTT1=
EXTT2=
EXTT3=
EXTT4=
EXTT5=
EXTT6=
EXTT7=
EXTT8=
PLAYORDER=
